<?xml version="1.0" standalone="no"?>
<!DOCTYPE svg PUBLIC "-//W3C//DTD SVG 20010904//EN"
 "http://www.w3.org/TR/2001/REC-SVG-20010904/DTD/svg10.dtd">
<svg version="1.0" xmlns="http://www.w3.org/2000/svg"
 width="796.000000pt" height="796.000000pt" viewBox="0 0 796.000000 796.000000"
 preserveAspectRatio="xMidYMid meet">
<metadata>
Created by potrace 1.11, written by Peter Selinger 2001-2013
</metadata>
<g transform="translate(0.000000,796.000000) scale(0.100000,-0.100000)"
fill="#000000" stroke="none">
<path d="M0 3980 l0 -3980 3980 0 3980 0 0 3980 0 3980 -2065 0 c-1136 0
-2065 -3 -2065 -6 0 -3 5 -15 11 -27 9 -20 8 -20 -9 2 -12 15 -24 21 -32 16
-9 -5 -11 -4 -6 3 5 9 -459 12 -1893 12 l-1901 0 0 -3980z m3780 3956 c0 -3
-34 -24 -75 -47 -41 -23 -71 -47 -68 -52 3 -6 1 -7 -5 -3 -7 4 -33 -5 -59 -20
-27 -15 -44 -23 -40 -18 7 7 237 143 245 144 1 0 2 -2 2 -4z m95 -66 c9 -16
13 -30 11 -30 -3 0 -12 14 -21 30 -9 17 -13 30 -11 30 3 0 12 -13 21 -30z m53
-92 c16 -29 40 -70 52 -90 12 -21 19 -38 16 -38 -3 0 -13 14 -21 30 -9 18 -21
28 -27 24 -7 -4 -8 -3 -4 4 4 6 -7 36 -25 67 -17 30 -29 55 -26 55 3 0 18 -24
35 -52z m-408 7 c0 -2 -10 -9 -22 -15 -22 -11 -22 -10 -4 4 21 17 26 19 26 11z
m-65 -38 c-34 -24 -120 -71 -113 -62 12 12 112 73 123 74 5 1 1 -5 -10 -12z
m-125 -72 c0 -2 -13 -11 -30 -20 -38 -19 -40 -11 -2 9 31 17 32 18 32 11z
m-70 -40 c0 -2 -13 -11 -30 -20 -38 -19 -40 -11 -2 9 31 17 32 18 32 11z m770
-35 c6 -11 8 -20 6 -20 -3 0 -10 9 -16 20 -6 11 -8 20 -6 20 3 0 10 -9 16 -20z
m-840 -4 c0 -2 -17 -15 -37 -27 -21 -13 -40 -25 -43 -28 -6 -7 -30 -12 -30 -7
0 4 101 65 108 66 1 0 2 -2 2 -4z m885 -73 c58 -100 68 -120 48 -94 -24 32
-85 141 -80 141 3 0 17 -21 32 -47z m-1005 2 c0 -2 -13 -11 -30 -20 -38 -19
-40 -11 -2 9 31 17 32 18 32 11z m-70 -40 c0 -2 -13 -11 -30 -20 -38 -19 -40
-11 -2 9 31 17 32 18 32 11z m-75 -44 c-16 -14 -105 -63 -105 -58 0 5 101 66
110 67 2 0 0 -4 -5 -9z m1270 -126 c54 -92 81 -144 68 -130 -12 13 -123 204
-123 212 0 10 5 2 55 -82z m-1405 50 c0 -2 -10 -9 -22 -15 -22 -11 -22 -10 -4
4 21 17 26 19 26 11z m-50 -30 c0 -2 -13 -11 -30 -20 -38 -19 -40 -11 -2 9 31
17 32 18 32 11z m-70 -40 c0 -2 -13 -11 -30 -20 -38 -19 -40 -11 -2 9 31 17
32 18 32 11z m-80 -56 c-25 -17 -96 -52 -87 -43 12 12 81 52 92 53 6 0 3 -4
-5 -10z m-100 -54 c0 -2 -10 -9 -22 -15 -22 -11 -22 -10 -4 4 21 17 26 19 26
11z m1800 -35 c8 -15 8 -18 -3 -14 -8 3 -14 11 -14 19 0 20 4 19 17 -5z
m-1870 -5 c0 -2 -10 -9 -22 -15 -22 -11 -22 -10 -4 4 21 17 26 19 26 11z m-50
-30 c0 -2 -13 -11 -30 -20 -38 -19 -40 -11 -2 9 31 17 32 18 32 11z m1975 -60
c16 -27 24 -45 18 -40 -6 6 -23 33 -38 60 -16 28 -24 46 -18 40 6 -5 23 -32
38 -60z m-2045 20 c0 -2 -10 -9 -22 -15 -22 -11 -22 -10 -4 4 21 17 26 19 26
11z m-70 -40 c0 -2 -10 -9 -22 -15 -22 -11 -22 -10 -4 4 21 17 26 19 26 11z
m-70 -40 c0 -2 -10 -9 -22 -15 -22 -11 -22 -10 -4 4 21 17 26 19 26 11z m2255
-60 c16 -27 24 -45 18 -40 -6 6 -23 33 -38 60 -16 28 -24 46 -18 40 6 -5 23
-32 38 -60z m-2310 26 c-16 -14 -105 -63 -105 -58 0 5 101 66 110 67 2 0 0 -4
-5 -9z m-115 -66 c0 -2 -13 -11 -30 -20 -38 -19 -40 -11 -2 9 31 17 32 18 32
11z m2504 -97 c16 -27 26 -48 23 -48 -6 0 -77 119 -77 128 0 8 20 -21 54 -80z
m-2594 47 c0 -2 -10 -9 -22 -15 -22 -11 -22 -10 -4 4 21 17 26 19 26 11z m-50
-30 c0 -2 -13 -11 -30 -20 -38 -19 -40 -11 -2 9 31 17 32 18 32 11z m-34 -97
c8 -16 13 -28 10 -28 -5 0 -46 69 -46 78 0 8 15 -13 36 -50z m2736 -20 c49
-87 221 -384 240 -415 11 -18 17 -33 14 -33 -3 0 -22 28 -42 63 -20 34 -41 65
-48 69 -6 4 -8 8 -4 8 9 0 -101 193 -115 202 -7 4 -9 8 -4 8 4 0 -3 17 -16 38
-31 48 -59 102 -53 102 2 0 15 -19 28 -42z m-2697 -48 c9 -16 13 -30 11 -30
-3 0 -12 14 -21 30 -9 17 -13 30 -11 30 3 0 12 -13 21 -30z m59 -101 c35 -59
50 -93 23 -54 -26 38 -69 115 -64 115 3 0 21 -27 41 -61z m1651 22 c3 -5 2
-12 -3 -15 -5 -3 -9 1 -9 9 0 17 3 19 12 6z m-1595 -121 c6 -11 8 -20 6 -20
-3 0 -10 9 -16 20 -6 11 -8 20 -6 20 3 0 10 -9 16 -20z m35 -60 c9 -16 13 -30
11 -30 -3 0 -12 14 -21 30 -9 17 -13 30 -11 30 3 0 12 -13 21 -30z m60 -105
c16 -27 24 -45 18 -40 -6 6 -23 33 -38 60 -16 28 -24 46 -18 40 6 -5 23 -32
38 -60z m2870 -250 c54 -93 100 -173 102 -177 2 -5 2 -8 0 -8 -5 0 -219 365
-226 385 -8 24 32 -41 124 -200z m-2820 165 c9 -16 13 -30 11 -30 -3 0 -12 14
-21 30 -9 17 -13 30 -11 30 3 0 12 -13 21 -30z m60 -105 c16 -27 24 -45 18
-40 -6 6 -23 33 -38 60 -16 28 -24 46 -18 40 6 -5 23 -32 38 -60z m50 -85 c9
-16 13 -30 11 -30 -3 0 -12 14 -21 30 -9 17 -13 30 -11 30 3 0 12 -13 21 -30z
m45 -80 c6 -11 8 -20 6 -20 -3 0 -10 9 -16 20 -6 11 -8 20 -6 20 3 0 10 -9 16
-20z m61 -105 c18 -33 28 -55 22 -50 -5 6 -25 37 -43 70 -18 33 -28 56 -23 50
6 -5 26 -37 44 -70z m2767 -72 c27 -49 59 -105 72 -125 12 -21 20 -38 17 -38
-3 0 -32 46 -65 103 -70 120 -84 147 -78 147 2 0 26 -39 54 -87z m-2718 -13
c6 -11 8 -20 6 -20 -3 0 -10 9 -16 20 -6 11 -8 20 -6 20 3 0 10 -9 16 -20z
m35 -60 c9 -16 13 -30 11 -30 -3 0 -12 14 -21 30 -9 17 -13 30 -11 30 3 0 12
-13 21 -30z m40 -70 c9 -16 13 -30 11 -30 -3 0 -12 14 -21 30 -9 17 -13 30
-11 30 3 0 12 -13 21 -30z m2773 -82 c16 -29 40 -70 52 -90 12 -21 20 -38 17
-38 -4 0 -70 107 -96 158 -23 44 -2 21 27 -30z m-2738 22 c6 -11 8 -20 6 -20
-3 0 -10 9 -16 20 -6 11 -8 20 -6 20 3 0 10 -9 16 -20z m35 -60 c9 -16 13 -30
11 -30 -3 0 -12 14 -21 30 -9 17 -13 30 -11 30 3 0 12 -13 21 -30z m60 -105
c16 -27 24 -45 18 -40 -6 6 -23 33 -38 60 -16 28 -24 46 -18 40 6 -5 23 -32
38 -60z m2735 -15 c8 -15 8 -18 -3 -14 -8 3 -14 11 -14 19 0 20 4 19 17 -5z
m105 -185 c22 -38 31 -64 22 -56 -9 7 -17 18 -17 23 0 6 -22 48 -50 95 -27 47
-50 88 -50 91 0 9 48 -67 95 -153z m-2785 105 c6 -11 8 -20 6 -20 -3 0 -10 9
-16 20 -6 11 -8 20 -6 20 3 0 10 -9 16 -20z m65 -112 c26 -46 50 -86 52 -90 2
-5 2 -8 -1 -8 -3 0 -37 57 -103 173 -2 4 -2 7 1 7 2 0 25 -37 51 -82z m2775
-88 c6 -11 8 -20 6 -20 -3 0 -10 9 -16 20 -6 11 -8 20 -6 20 3 0 10 -9 16 -20z
m-2695 -50 c9 -16 13 -30 11 -30 -3 0 -12 14 -21 30 -9 17 -13 30 -11 30 3 0
12 -13 21 -30z m2798 -127 c47 -82 95 -166 107 -188 13 -22 18 -35 12 -30 -6
6 -52 82 -102 170 -111 194 -112 195 -106 195 2 0 42 -66 89 -147z m-2738 22
c16 -27 24 -45 18 -40 -6 6 -23 33 -38 60 -16 28 -24 46 -18 40 6 -5 23 -32
38 -60z m55 -95 c6 -11 8 -20 6 -20 -3 0 -10 9 -16 20 -6 11 -8 20 -6 20 3 0
10 -9 16 -20z m35 -60 c9 -16 13 -30 11 -30 -3 0 -12 14 -21 30 -9 17 -13 30
-11 30 3 0 12 -13 21 -30z m60 -105 c16 -27 24 -45 18 -40 -6 6 -23 33 -38 60
-16 28 -24 46 -18 40 6 -5 23 -32 38 -60z m2770 -77 c26 -46 50 -86 52 -90 2
-5 2 -8 -1 -8 -3 0 -37 57 -103 173 -2 4 -2 7 1 7 2 0 25 -37 51 -82z m-2666
-103 c17 -33 25 -51 16 -40 -19 23 -72 125 -58 110 5 -5 24 -37 42 -70z m2779
-92 c27 -49 59 -105 72 -125 12 -21 20 -38 17 -38 -3 0 -32 46 -65 103 -70
120 -84 147 -78 147 2 0 26 -39 54 -87z m-2723 -3 c9 -16 13 -30 11 -30 -3 0
-12 14 -21 30 -9 17 -13 30 -11 30 3 0 12 -13 21 -30z m75 -132 c54 -92 52
-88 47 -88 -3 0 -24 33 -47 73 -54 91 -52 87 -47 87 3 0 24 -33 47 -72z m2815
-155 c77 -134 83 -146 61 -119 -9 11 -16 24 -16 29 0 4 -6 5 -12 1 -7 -4 -10
-3 -5 1 6 8 -12 45 -80 163 -14 23 -23 42 -20 42 3 0 36 -53 72 -117z m-2745
37 c6 -11 8 -20 6 -20 -3 0 -10 9 -16 20 -6 11 -8 20 -6 20 3 0 10 -9 16 -20z
m45 -80 c9 -16 13 -30 11 -30 -3 0 -12 14 -21 30 -9 17 -13 30 -11 30 3 0 12
-13 21 -30z m40 -70 c9 -16 13 -30 11 -30 -3 0 -12 14 -21 30 -9 17 -13 30
-11 30 3 0 12 -13 21 -30z m2755 -50 c6 -11 8 -20 6 -20 -3 0 -10 9 -16 20 -6
11 -8 20 -6 20 3 0 10 -9 16 -20z m-2720 -10 c6 -11 8 -20 6 -20 -3 0 -10 9
-16 20 -6 11 -8 20 -6 20 3 0 10 -9 16 -20z m2777 -90 c55 -91 136 -240 130
-240 -3 0 -25 35 -48 78 -23 42 -62 110 -86 149 -23 40 -43 76 -43 79 0 11 4
5 47 -66z m-2737 20 c6 -11 8 -20 6 -20 -3 0 -10 9 -16 20 -6 11 -8 20 -6 20
3 0 10 -9 16 -20z m55 -95 c16 -27 24 -45 18 -40 -6 6 -23 33 -38 60 -16 28
-24 46 -18 40 6 -5 23 -32 38 -60z m50 -85 c9 -16 13 -30 11 -30 -3 0 -12 14
-21 30 -9 17 -13 30 -11 30 3 0 12 -13 21 -30z m59 -101 c35 -59 50 -93 23
-54 -26 38 -69 115 -64 115 3 0 21 -27 41 -61z m2736 -33 c0 -12 -5 -7 -19 24
-11 24 -11 24 3 6 9 -11 16 -24 16 -30z m49 -111 c0 -5 -11 10 -24 35 -13 25
-24 50 -24 55 0 6 11 -10 24 -35 13 -25 24 -49 24 -55z m-2724 35 c9 -16 13
-30 11 -30 -3 0 -12 14 -21 30 -9 17 -13 30 -11 30 3 0 12 -13 21 -30z m35
-60 c6 -11 8 -20 6 -20 -3 0 -10 9 -16 20 -6 11 -8 20 -6 20 3 0 10 -9 16 -20z
m2719 -45 c0 -5 -6 1 -14 15 -8 14 -14 30 -14 35 0 6 6 -1 14 -15 8 -14 14
-29 14 -35z m-2664 -50 c16 -27 24 -45 18 -40 -6 6 -23 33 -38 60 -16 28 -24
46 -18 40 6 -5 23 -32 38 -60z m2676 -8 c-10 -9 -11 -8 -5 6 3 10 9 15 12 12
3 -3 0 -11 -7 -18z m48 -107 c0 -8 -7 1 -14 20 -18 46 -17 64 0 25 8 -16 14
-37 14 -45z m-2674 30 c9 -16 13 -30 11 -30 -3 0 -12 14 -21 30 -9 17 -13 30
-11 30 3 0 12 -13 21 -30z m40 -70 c9 -16 13 -30 11 -30 -3 0 -12 14 -21 30
-9 17 -13 30 -11 30 3 0 12 -13 21 -30z m2654 -30 c0 -9 -4 -8 -9 5 -5 11 -9
27 -9 35 0 9 4 8 9 -5 5 -11 9 -27 9 -35z m-2594 -75 c16 -27 24 -45 18 -40
-6 6 -23 33 -38 60 -16 28 -24 46 -18 40 6 -5 23 -32 38 -60z m2612 -4 c-3
-10 -5 -7 -6 7 0 13 -5 21 -10 18 -5 -4 -7 4 -3 16 5 22 5 22 14 -2 5 -13 7
-31 5 -39z m10 -43 c-3 -8 -6 -5 -6 6 -1 11 2 17 5 13 3 -3 4 -12 1 -19z
m-2577 -28 c6 -11 8 -20 6 -20 -3 0 -10 9 -16 20 -6 11 -8 20 -6 20 3 0 10 -9
16 -20z m2587 -27 c-3 -10 -5 -4 -5 12 0 17 2 24 5 18 2 -7 2 -21 0 -30z
m-2522 -88 c16 -27 24 -45 18 -40 -6 6 -23 33 -38 60 -16 28 -24 46 -18 40 6
-5 23 -32 38 -60z m2532 28 c-3 -10 -5 -4 -5 12 0 17 2 24 5 18 2 -7 2 -21 0
-30z m10 -75 c-2 -13 -4 -5 -4 17 -1 22 1 32 4 23 2 -10 2 -28 0 -40z m-3258
-5 c11 -27 11 -27 -5 -8 -8 11 -20 19 -25 17 -6 -1 -8 2 -4 8 10 17 21 11 34
-17z m-49 3 c0 -2 -53 -34 -117 -72 -137 -78 -141 -80 -130 -68 7 8 237 143
245 144 1 0 2 -2 2 -4z m810 -26 c6 -11 8 -20 6 -20 -3 0 -10 9 -16 20 -6 11
-8 20 -6 20 3 0 10 -9 16 -20z m-730 -30 c6 -11 8 -20 6 -20 -3 0 -10 9 -16
20 -6 11 -8 20 -6 20 3 0 10 -9 16 -20z m3237 -233 c-1 -45 -3 -5 -3 88 0 94
2 130 3 82 2 -48 2 -125 0 -170z m-2462 183 c9 -16 13 -30 11 -30 -3 0 -12 14
-21 30 -9 17 -13 30 -11 30 3 0 12 -13 21 -30z m-670 -130 c93 -162 91 -158
78 -145 -6 6 -37 55 -69 110 -85 147 -108 191 -97 180 6 -5 46 -71 88 -145z
m736 15 c18 -33 28 -55 22 -50 -5 6 -25 37 -43 70 -18 33 -28 56 -23 50 6 -5
26 -37 44 -70z m-1204 52 c0 -7 -9 -13 -19 -13 -18 0 -18 1 -2 13 10 7 18 13
19 13 1 0 2 -6 2 -13z m-47 -21 c0 -4 -128 -79 -180 -106 -55 -28 -5 6 82 56
98 56 98 56 98 50z m1294 -112 c3 -8 2 -12 -4 -9 -6 3 -10 10 -10 16 0 14 7
11 14 -7z m-1519 -20 c-23 -18 -104 -60 -93 -49 9 10 101 64 108 64 3 0 -4 -7
-15 -15z m1565 -68 c0 -12 -5 -7 -19 24 -11 24 -11 24 3 6 9 -11 16 -24 16
-30z m-1670 10 c0 -6 -122 -77 -126 -73 -3 2 116 76 124 77 1 0 2 -2 2 -4z
m3967 -53 c-3 -10 -5 -2 -5 17 0 19 2 27 5 18 2 -10 2 -26 0 -35z m-3012 7 c9
-16 13 -30 11 -30 -3 0 -12 14 -21 30 -9 17 -13 30 -11 30 3 0 12 -13 21 -30z
m754 -55 c0 -5 -6 1 -14 15 -8 14 -14 30 -14 35 0 6 6 -1 14 -15 8 -14 14 -29
14 -35z m-1849 20 c0 -2 -10 -9 -22 -15 -22 -11 -22 -10 -4 4 21 17 26 19 26
11z m1148 -57 c16 -29 54 -90 85 -135 30 -46 52 -83 48 -83 -6 0 -137 203
-160 248 -23 44 -2 21 27 -30z m2951 25 c0 -25 -1 -25 -8 -8 -5 11 -7 23 -4
28 8 14 13 7 12 -20z m-4149 2 c0 -2 -13 -11 -30 -20 -38 -19 -40 -11 -2 9 31
17 32 18 32 11z m1920 -40 c0 -5 -5 -3 -10 5 -5 8 -10 20 -10 25 0 6 5 3 10
-5 5 -8 10 -19 10 -25z m-1990 0 c0 -2 -13 -11 -30 -20 -38 -19 -40 -11 -2 9
31 17 32 18 32 11z m4207 -27 c-3 -7 -5 -2 -5 12 0 14 2 19 5 13 2 -7 2 -19 0
-25z m-2197 -23 c0 -5 -5 -3 -10 5 -5 8 -10 20 -10 25 0 6 5 3 10 -5 5 -8 10
-19 10 -25z m-2080 10 c0 -2 -10 -9 -22 -15 -22 -11 -22 -10 -4 4 21 17 26 19
26 11z m4264 -49 c-3 -21 -8 -35 -11 -32 -2 2 -1 20 3 40 3 21 8 35 11 32 2
-2 1 -20 -3 -40z m-4314 20 c0 -2 -12 -11 -27 -20 l-28 -17 24 20 c23 21 31
25 31 17z m-60 -41 c0 -2 -10 -9 -22 -15 -22 -11 -22 -10 -4 4 21 17 26 19 26
11z m2229 -65 c0 -9 -4 -8 -9 5 -5 11 -9 27 -9 35 0 9 4 8 9 -5 5 -11 9 -27 9
-35z m-2279 35 c0 -2 -13 -11 -30 -20 -38 -19 -40 -11 -2 9 31 17 32 18 32 11z
m4399 -44 c-7 -23 -14 -39 -16 -37 -3 2 1 23 8 45 7 23 14 39 16 37 3 -2 -1
-23 -8 -45z m-4469 4 c0 -2 -13 -11 -30 -20 -38 -19 -40 -11 -2 9 31 17 32 18
32 11z m2357 -47 c-3 -7 -5 -2 -5 12 0 14 2 19 5 13 2 -7 2 -19 0 -25z m-2427
7 c0 -2 -10 -9 -22 -15 -22 -11 -22 -10 -4 4 21 17 26 19 26 11z m1915 -146
c47 -52 44 -49 -16 12 -43 43 -87 93 -99 111 -14 21 -8 17 16 -12 21 -25 66
-75 99 -111z m2589 77 c-9 -26 -18 -45 -20 -43 -2 2 3 25 12 51 9 26 18 45 20
43 2 -2 -3 -25 -12 -51z m-4554 39 c0 -2 -10 -9 -22 -15 -22 -11 -22 -10 -4 4
21 17 26 19 26 11z m2487 -32 c-3 -10 -5 -4 -5 12 0 17 2 24 5 18 2 -7 2 -21
0 -30z m-2557 -8 c0 -2 -10 -9 -22 -15 -22 -11 -22 -10 -4 4 21 17 26 19 26
11z m-65 -38 c-34 -24 -120 -71 -113 -62 12 12 112 73 123 74 5 1 1 -5 -10
-12z m2632 -84 c-2 -21 -4 -6 -4 32 0 39 2 55 4 38 2 -18 2 -50 0 -70z m2014
20 c-11 -21 -20 -35 -21 -31 0 12 33 78 38 74 2 -2 -6 -21 -17 -43z m-4771 -8
c0 -2 -13 -11 -30 -20 -38 -19 -40 -11 -2 9 31 17 32 18 32 11z m-70 -40 c0
-2 -13 -11 -30 -20 -38 -19 -40 -11 -2 9 31 17 32 18 32 11z m2504 -87 c22
-11 63 -29 91 -40 28 -10 37 -16 20 -13 -48 9 -167 71 -210 110 l-40 36 49
-36 c27 -20 67 -46 90 -57z m2309 77 c-3 -9 -8 -14 -10 -11 -3 3 -2 9 2 15 9
16 15 13 8 -4z m-2008 -66 c-8 -19 -13 -25 -9 -14 3 11 8 34 12 50 3 17 8 23
10 14 1 -9 -4 -32 -13 -50z m-2875 36 c0 -2 -13 -11 -30 -20 -38 -19 -40 -11
-2 9 31 17 32 18 32 11z m4849 -37 c-26 -52 -135 -214 -148 -223 -6 -3 19 37
55 89 35 52 64 97 64 100 0 8 41 76 46 76 3 0 -5 -19 -17 -42z m-4939 -18
c-14 -11 -29 -20 -35 -20 -5 0 4 9 20 20 38 25 48 25 15 0z m2941 -43 c-10 -9
-11 -8 -5 6 3 10 9 15 12 12 3 -3 0 -11 -7 -18z m-2976 -37 c9 -16 13 -30 11
-30 -3 0 -12 14 -21 30 -9 17 -13 30 -11 30 3 0 12 -13 21 -30z m2888 23 c-7
-2 -21 -2 -30 0 -10 3 -4 5 12 5 17 0 24 -2 18 -5z m70 -10 c-7 -2 -21 -2 -30
0 -10 3 -4 5 12 5 17 0 24 -2 18 -5z m-2923 -73 c6 -11 8 -20 6 -20 -3 0 -10
9 -16 20 -6 11 -8 20 -6 20 3 0 10 -9 16 -20z m54 -95 c15 -27 20 -41 11 -30
-19 22 -63 106 -48 90 5 -5 22 -32 37 -60z m4698 -22 c-16 -21 -40 -47 -53
-58 -13 -11 -1 6 26 38 55 64 73 77 27 20z m-4647 -63 c9 -16 13 -30 11 -30
-3 0 -12 14 -21 30 -9 17 -13 30 -11 30 3 0 12 -13 21 -30z m4495 -105 c-46
-46 -86 -83 -87 -81 -2 2 25 32 61 66 36 35 63 68 59 74 -3 6 -3 8 2 4 4 -4
14 -1 22 7 8 8 17 15 21 15 4 0 -31 -38 -78 -85z m-4455 35 c9 -16 13 -30 11
-30 -3 0 -12 14 -21 30 -9 17 -13 30 -11 30 3 0 12 -13 21 -30z m40 -70 c9
-16 13 -30 11 -30 -3 0 -12 14 -21 30 -9 17 -13 30 -11 30 3 0 12 -13 21 -30z
m35 -60 c6 -11 8 -20 6 -20 -3 0 -10 9 -16 20 -6 11 -8 20 -6 20 3 0 10 -9 16
-20z m4270 -5 c-7 -9 -36 -34 -64 -57 -47 -38 -47 -36 9 15 60 57 78 70 55 42z
m-4230 -65 c6 -11 8 -20 6 -20 -3 0 -10 9 -16 20 -6 11 -8 20 -6 20 3 0 10 -9
16 -20z m35 -60 c9 -16 13 -30 11 -30 -3 0 -12 14 -21 30 -9 17 -13 30 -11 30
3 0 12 -13 21 -30z m4048 2 c-37 -32 -163 -120 -148 -104 14 15 169 132 175
131 3 0 -9 -12 -27 -27z m-3992 -97 l10 -20 -16 20 c-9 11 -21 29 -26 40 l-10
20 16 -20 c9 -11 21 -29 26 -40z m3829 -19 c0 -2 -12 -11 -27 -20 l-28 -17 24
20 c23 21 31 25 31 17z m-3795 -32 c9 -15 12 -23 6 -20 -11 7 -35 46 -28 46 3
0 12 -12 22 -26z m3715 -24 c-28 -21 -109 -67 -99 -56 9 10 113 75 119 76 3 0
-6 -9 -20 -20z m-3587 -159 c27 -36 34 -50 17 -31 -18 19 -50 62 -71 95 -43
65 -23 41 54 -64z m3462 83 c-23 -18 -104 -60 -93 -49 9 10 101 64 108 64 3 0
-4 -7 -15 -15z m-105 -59 c0 -6 -217 -115 -227 -114 -6 0 214 116 225 118 1 1
2 -1 2 -4z m-3280 -120 c13 -14 21 -25 18 -25 -2 0 -15 11 -28 25 -13 14 -21
25 -18 25 2 0 15 -11 28 -25z m3020 -10 c-14 -8 -29 -14 -35 -14 -5 0 1 6 15
14 14 8 30 14 35 14 6 0 -1 -6 -15 -14z m-2760 -259 c41 -38 53 -50 25 -28
-75 62 -157 141 -211 203 -29 32 -16 22 31 -26 44 -44 114 -112 155 -149z
m2690 230 c0 -2 -25 -22 -55 -45 -30 -23 -55 -39 -55 -37 0 5 102 85 108 86 1
0 2 -2 2 -4z m-140 -107 c-27 -21 -71 -47 -55 -32 19 18 68 53 74 53 3 0 -5
-9 -19 -21z m-100 -63 c0 -4 -99 -68 -140 -91 -38 -21 7 13 68 52 70 45 72 45
72 39z m-160 -101 c0 -2 -18 -14 -40 -25 -22 -11 -40 -18 -40 -15 0 2 17 13
38 24 42 23 42 23 42 16z m-2065 -128 c15 -15 -11 0 -77 45 -31 21 -60 42 -63
48 -6 10 121 -75 140 -93z m1955 68 c0 -6 -197 -105 -207 -104 -6 0 194 106
205 108 1 1 2 -1 2 -4z m-1885 -113 c-3 -3 -11 0 -18 7 -9 10 -8 11 6 5 10 -3
15 -9 12 -12z m101 -50 c-5 -4 -86 36 -86 43 0 3 20 -5 45 -17 24 -12 43 -23
41 -26z m1484 18 c-8 -5 -19 -10 -25 -10 -5 0 -3 5 5 10 8 5 20 10 25 10 6 0
3 -5 -5 -10z m-50 -19 c-8 -5 -26 -11 -40 -15 -21 -5 -20 -3 5 9 32 15 60 20
35 6z m-1350 -31 c8 -5 11 -10 5 -10 -5 0 -17 5 -25 10 -8 5 -10 10 -5 10 6 0
17 -5 25 -10z m1175 -30 c-11 -5 -27 -9 -35 -9 -9 0 -8 4 5 9 11 5 27 9 35 9
9 0 8 -4 -5 -9z m-985 -30 c20 -6 21 -8 5 -8 -11 0 -29 3 -40 8 -25 11 1 11
35 0z m893 3 c-7 -2 -19 -2 -25 0 -7 3 -2 5 12 5 14 0 19 -2 13 -5z m-46 -9
c-3 -3 -12 -4 -19 -1 -8 3 -5 6 6 6 11 1 17 -2 13 -5z m-790 -10 c-3 -3 -12
-4 -19 -1 -8 3 -5 6 6 6 11 1 17 -2 13 -5z m746 -1 c-7 -2 -19 -2 -25 0 -7 3
-2 5 12 5 14 0 19 -2 13 -5z m-700 -10 c-7 -2 -19 -2 -25 0 -7 3 -2 5 12 5 14
0 19 -2 13 -5z m650 0 c-7 -2 -19 -2 -25 0 -7 3 -2 5 12 5 14 0 19 -2 13 -5z
m-590 -10 c-7 -2 -19 -2 -25 0 -7 3 -2 5 12 5 14 0 19 -2 13 -5z m530 0 c-7
-2 -21 -2 -30 0 -10 3 -4 5 12 5 17 0 24 -2 18 -5z m-445 -10 c-10 -2 -28 -2
-40 0 -13 2 -5 4 17 4 22 1 32 -1 23 -4z m370 0 c-10 -2 -28 -2 -40 0 -13 2
-5 4 17 4 22 1 32 -1 23 -4z"/>
</g>
</svg>
