<svg xmlns="http://www.w3.org/2000/svg" viewBox="0 0 521.56 796"><defs><style>.cls-1{fill:#fd0b56;}.cls-2{fill:#09fcd7;}.cls-3{fill:#fe4780;}</style></defs><title>Asset 1</title><g id="Layer_2" data-name="Layer 2"><g id="Layer_1-2" data-name="Layer 1"><path class="cls-1" d="M243.56,0h1a4,4,0,0,0,.28.93Q364.36,207.83,484,414.67c15.35,26.49,28.44,53.74,34.15,84.06,1.2,6.41,2.28,12.85,3.42,19.27v32a17.48,17.48,0,0,0-1.14,3.48c-4.53,39.78-21.17,73.82-48.49,102.88-23.07,24.53-50.2,43.63-79.67,59.53-11.36,6.13-23.21,11.34-34.84,17a35,35,0,0,0-3.83.92c-16.95,6.13-34.26,10.71-52.24,12.59-38.86,4.06-75.14-3.21-108.11-24.76-28.87-18.87-50.8-44.41-68.68-73.46C109.93,624.37,96.27,600,82.18,575.89A43.93,43.93,0,0,1,86.12,573q35.43-20.52,70.88-41l35.59-20.5c.84,1.27,1.5,2.18,2.06,3.15,8.83,15.26,17.7,30.51,26.46,45.81,10.21,17.85,21.31,35,37,48.64,11.86,10.25,25,17.67,41.44,16.81,3.14-.16,6.36,0,9.42-.55,23.63-4.47,43.33-16.5,60.73-32.51,14.59-13.43,20.16-29.93,16-49.72-4.16-20-12.54-38.18-22.6-55.64q-102.62-178-205.48-355.8C146,111.58,134.27,91.53,122.56,71.44A37.32,37.32,0,0,1,127,67.87Q183.06,35.41,239.16,3C240.69,2.14,242.1,1,243.56,0Z"/><path class="cls-2" d="M188.56,796c-5.13-.86-10.26-1.79-15.4-2.58-38.45-5.88-69.64-25-96.27-52.57-22.32-23.11-38.48-50.44-54.2-78.1-7.38-13-14.91-25.92-22.69-39.42l82.18-47.44c14.09,24.11,27.75,48.48,42.38,72.26,17.88,29.05,39.81,54.59,68.68,73.46,33,21.55,69.25,28.82,108.11,24.76,18-1.88,35.29-6.46,52.24-12.59a35,35,0,0,1,3.83-.92,11.36,11.36,0,0,1-1.89,2.12c-9,6.21-17.91,12.7-27.22,18.47C296.68,773,263.2,788.05,226,793.58L209.56,796Z"/><path class="cls-3" d="M521.56,542v0Z"/><path class="cls-2" d="M299.58,625.94c6.82-12.27,6.43-25.21,3.41-38.34-4.29-18.69-12.45-35.8-21.95-52.27q-118.86-206-237.87-412c-.83-1.43-1.63-2.88-2.61-4.6A26.71,26.71,0,0,1,42.9,117q38.46-22.23,77-44.4a28.4,28.4,0,0,1,2.7-1.2c11.71,20.09,23.48,40.14,35.12,60.28q102.78,177.87,205.48,355.8c10.06,17.46,18.44,35.67,22.6,55.64,4.13,19.79-1.44,36.29-16,49.72-17.4,16-37.1,28-60.73,32.51C305.94,626,302.72,625.78,299.58,625.94Z"/></g></g></svg>